<?xml version="1.0" encoding="utf-8"?>
<!-- Generator: Adobe Illustrator 28.5.0, SVG Export Plug-In . SVG Version: 9.03 Build 54727)  -->
<svg version="1.1" xmlns="http://www.w3.org/2000/svg" xmlns:xlink="http://www.w3.org/1999/xlink" x="0px" y="0px"
	 viewBox="0 0 1223.58 1223.58" style="enable-background:new 0 0 1223.58 1223.58;" xml:space="preserve">
<style type="text/css">
	.st0{display:none;}
	.st1{display:inline;fill:#F2E8DF;}
	.st2{fill:#F2AE72;}
	.st3{fill:#26110D;}
	.st4{fill:#F2E8DF;}
	.st5{fill:#F2691D;}
	.st6{fill:#D69667;}
</style>
<g id="Capa_16" class="st0">
	<rect x="-2.34" y="268.36" class="st1" width="1227.15" height="957.35"/>
</g>
<g id="Capa_15_copia">
	<g>
		<path class="st2" d="M1216.53,898.12c-3.02,5.65-6.36,11.09-10.04,16.3c-20.38,28.91-50.32,50.62-85.23,60.46
			c0,0,49.4,19.26,49.42,19.26l2.8,1.1c-85.95,56.41-232.06,90.86-460.43,119.42h-0.05c-32.72,8.33-67.02,12.76-102.34,12.76
			c-2.52,0-5.02-0.02-7.56-0.07c-2.87-0.04-5.76-0.13-8.61-0.22c-0.02,0-0.04,0-0.06-0.02c-45.17-1.75-88.49-10.72-128.81-25.84
			c-0.02,0-0.04,0-0.09-0.02c-193.79-40.43-276.5-69.43-424.71-166.75l46.04-13.72c-11.04-4.98-21.39-11.2-30.88-18.5
			c-21.34-16.35-38.31-38.11-48.92-63.22c0.94,0.04,1.89,0.04,2.85,0.04c32.35,0,62.41-9.84,87.33-26.69
			c-26.54-17.95-47.27-43.83-58.75-74.23c0.77,0.04,1.56,0.04,2.34,0.04c49.05,0,92.81-22.62,121.43-57.99
			c1.23-1.53,2.45-3.05,3.6-4.62c6.95-9.29,12.91-19.39,17.71-30.15c1.73-1.91,4.56-8.59,7.98-17.9c1.17-3.17,2.29-6.36,3.4-9.56
			c1.23-3.57,2.44-7.15,3.63-10.73c1.27-3.83,2.52-7.66,3.76-11.5c1.27-3.95,2.53-7.91,3.77-11.87c1.24-3.94,2.47-7.88,3.68-11.82
			c1.17-3.79,2.33-7.58,3.49-11.37c1.07-3.5,2.13-7.01,3.18-10.52c0.93-3.08,1.85-6.17,2.77-9.25c1.16-3.89,2.3-7.78,3.45-11.67
			c0.4-1.37,0.81-2.74,1.21-4.11c0.06-0.2,0.12-0.4,0.12-0.6c0.02-0.53-0.35-0.85-0.61-1.25c-0.3-0.47-0.61-0.95-0.91-1.42
			c-0.61-0.95-1.21-1.9-1.8-2.86c-1.2-1.91-2.37-3.83-3.54-5.77c-2.33-3.87-4.6-7.77-6.8-11.71c-2.21-3.95-4.35-7.93-6.42-11.95
			c-2.08-4.03-4.09-8.09-6.04-12.19c-1.95-4.1-3.83-8.24-5.65-12.41c-1.82-4.18-3.57-8.39-5.25-12.62
			c-1.68-4.25-3.3-8.53-4.84-12.83c-1.55-4.32-3.02-8.66-4.42-13.03c-1.41-4.38-2.74-8.79-3.99-13.22
			c-1.26-4.45-2.45-8.91-3.56-13.4c-1.12-4.51-2.16-9.03-3.12-13.58c-0.97-4.57-1.86-9.15-2.67-13.74
			c-0.82-4.62-1.55-9.25-2.21-13.9c-0.66-4.67-1.25-9.36-1.75-14.05c-0.51-4.72-0.93-9.45-1.27-14.19
			c-0.35-4.77-0.61-9.55-0.79-14.33c-0.18-4.81-0.28-9.63-0.3-14.45c0-0.53,0-1.06,0-1.6c0-74.14,19.5-143.7,53.65-203.89
			c38.15,2.46,74.88,10.1,109.51,22.24c73.28,25.62,137.16,71.29,185.03,130.44c35.94-10.19,73.9-15.65,113.12-15.65
			c49.24,0,96.45,8.59,140.25,24.39c48.94-59.24,114.04-104.64,188.55-129.39c38.88-12.95,80.34-20.27,123.4-20.99
			c26.36,54.42,41.13,115.51,41.13,180.03c0,2.04-0.02,4.06-0.06,6.12c-1.27,88.89-30.59,170.98-79.51,237.86
			c-0.04,2.04-0.06,4.06-0.06,6.11c0,10.85,0.42,21.61,1.25,32.26c2.69,34.96,9.73,68.72,20.58,100.7
			c2.96,6.97,13.61,31.32,21.32,45.54c1.82,3.35,3.75,6.62,5.78,9.8c24.72,38.59,65.92,65.59,113.69,71.03
			c-8.33,15.82-19.29,30.04-32.32,42.03c-10.02,9.29-21.28,17.27-33.49,23.65C1153.73,882.34,1183.68,895.32,1216.53,898.12z"/>
		<path class="st3" d="M638.18,820.65c0,3.79-0.88,7.38-2.46,10.56c-1.66,2.28-3.33,4.54-5.04,6.79
			c-16.55,21.91-35.26,42.1-55.79,60.27c-3.4,3-6.86,5.96-10.36,8.85c-2.94,1.32-6.22,2.06-9.66,2.06c-4.73,0-9.12-1.38-12.82-3.75
			c-0.96-0.81-1.91-1.64-2.87-2.46c-0.04-0.02-0.06-0.04-0.09-0.07c-0.09-0.07-0.18-0.17-0.26-0.24c-0.39-0.35-0.79-0.68-1.18-1.05
			c-0.07-0.07-0.17-0.17-0.26-0.24c-0.22-0.2-0.44-0.39-0.66-0.59c-6.33-5.54-12.49-11.27-18.45-17.25
			c-16.92-16.92-32.39-35.31-46.17-54.96c-0.04-0.02-0.05-0.06-0.07-0.09c-0.9-1.07-1.69-2.23-2.39-3.46
			c-1.95-3.46-3.05-7.43-3.05-11.68c0-6.57,2.67-12.53,6.97-16.83c3.18-3.18,7.28-5.48,11.84-6.46c1.62-0.33,3.27-0.51,4.98-0.51
			h0.17c12.93-1.23,26.03-1.86,39.27-1.86c30.16,0,59.56,3.24,87.88,9.42c1.23,0.26,2.46,0.53,3.7,0.83c0,0,0.02,0,0.04,0
			c3.72,1.16,7.06,3.22,9.75,5.9C635.51,808.12,638.18,814.08,638.18,820.65z"/>
		<path class="st3" d="M472.89,639.48c-0.16,10.61-1.01,21.24-1.67,31.73c-0.49,7.71-0.86,15.46-2.24,23.07
			c-4.62,25.46-25.13,45.24-51.25,47.38c-24.51,2-48.39-12.73-57.55-35.61c-4.23-10.58-4.2-23.57-3.83-34.76
			c0.39-11.99,0.66-24.4,2.56-36.27c1.73-10.79,2.1-21.2,6.79-31.38c8.43-18.31,26.5-30.96,46.6-32.6
			c14.87-1.22,30.11,3.89,41.55,13.4c12.77,10.61,17.92,25.56,18.81,41.79C472.9,630.63,472.95,635.05,472.89,639.48z"/>
		<path class="st3" d="M703.66,651.92c-0.15,10.61,0.4,21.26,0.77,31.76c0.27,7.72,0.42,15.48,1.58,23.12
			c3.89,25.58,23.83,45.94,49.88,48.82c24.44,2.7,48.73-11.34,58.54-33.96c4.53-10.45,4.87-23.44,4.82-34.64
			c-0.05-12,0.04-24.41-1.52-36.33c-1.42-10.83-1.49-21.25-5.89-31.57c-7.9-18.54-25.61-31.7-45.65-33.91
			c-14.83-1.64-30.21,3.03-41.92,12.21c-13.06,10.24-18.64,25.03-20,41.24C703.9,643.07,703.72,647.49,703.66,651.92z"/>
		<path class="st4" d="M597.88,803.99L597.88,803.99c5.36,0,9.7,4.34,9.7,9.7l0,0c0,5.36-4.34,9.7-9.7,9.7l0,0
			c-5.36,0-9.7-4.34-9.7-9.7l0,0C588.18,808.34,592.52,803.99,597.88,803.99z"/>
		<path class="st5" d="M224.05,524.56c0.04-0.13,0.06-0.18,0.06-0.18C224.1,524.43,224.08,524.49,224.05,524.56z"/>
		<path class="st6" d="M506.25,248.83C371.85,286.96,265.3,391.3,224.1,524.38c-41.79-64.61-66.05-141.64-66.05-224.34
			c0-74.14,19.5-143.7,53.65-203.89c38.15,2.46,74.88,10.1,109.51,22.24C394.49,144.01,458.37,189.68,506.25,248.83z"/>
		<path class="st6" d="M1112.68,287.22c0,2.04-0.02,4.06-0.06,6.11v0.02c-1.27,88.89-32.21,171.69-81.14,238.57
			c-0.02-0.04-0.02-0.04,0,0C993.86,397.97,892.08,298.99,760,257.11c48.89-59.02,113.85-104.25,188.16-128.93
			c38.88-12.95,80.34-20.27,123.4-20.99C1097.91,161.61,1112.68,222.7,1112.68,287.22z"/>
		<path class="st4" d="M769.24,650.09L769.24,650.09c12.93,0,23.42-10.49,23.42-23.42v0c0-12.93-10.49-23.42-23.42-23.42h0
			c-12.93,0-23.42,10.49-23.42,23.42v0C745.83,639.61,756.31,650.09,769.24,650.09z"/>
		<path class="st4" d="M430.77,638L430.77,638c12.93,0,23.42-10.49,23.42-23.42l0,0c0-12.93-10.49-23.42-23.42-23.42h0
			c-12.93,0-23.42,10.49-23.42,23.42l0,0C407.35,627.52,417.84,638,430.77,638z"/>
	</g>
</g>
<g id="Capa_19">
</g>
</svg>
