<?xml version="1.0" encoding="utf-8"?>
<!-- Generator: Adobe Illustrator 28.5.0, SVG Export Plug-In . SVG Version: 9.03 Build 54727)  -->
<svg version="1.1" id="Capa_1" xmlns="http://www.w3.org/2000/svg" xmlns:xlink="http://www.w3.org/1999/xlink" x="0px" y="0px"
	 viewBox="0 0 1080 1080" style="enable-background:new 0 0 1080 1080;" xml:space="preserve">
<style type="text/css">
	.st0{fill:#FFD797;}
	.st1{fill:#FFBC80;}
	.st2{fill:#FFE5B6;}
	.st3{fill:#F2E8DF;}
	.st4{fill:#F2691D;}
	.st5{fill:#934624;}
	.st6{fill:#FFFEFD;}
</style>
<g>
	<path class="st0" d="M462.85,294.5c-102.68,69.76-203.94,97.49-205.12,268.74c-51.01-72.72-92.34-165.85-112.99-267.95
		c-18.51-91.54-19.59-180.71-6.1-260.78c32.46-3.4,78.58,12.73,107.3,29.44C319.15,106.55,408.11,229.55,462.85,294.5z"/>
	<path class="st1" d="M266.84,574.96l12.95-87.47c-127.08-77.14-72.26-358.64-142.66-446.67
		C115.29,236.33,152.74,425.16,266.84,574.96z"/>
	<path class="st0" d="M659.55,304.11c55.14,27.9,213.55,87.88,214.73,259.13c51.01-72.72,92.34-165.85,112.99-267.95
		c18.51-91.54,19.59-180.71,6.1-260.78c-32.46-3.4-78.58,12.73-107.3,29.44C812.86,106.55,714.28,239.16,659.55,304.11z"/>
	<path class="st1" d="M865.17,574.96l-12.95-87.47c127.08-77.14,72.26-358.64,142.66-446.67
		C1016.71,236.33,979.27,425.16,865.17,574.96z"/>
	<path class="st2" d="M544.59,282.66c-188.07,0-305.73,126.56-337.92,262.99c-28.8,115.81-80.71,171.79-154.43,171.25
		c3.65,18.07,27.24,46.72,45.87,58.1C84.02,791.75,59.43,800.32,24.72,801c7.59,28.33,36.79,59.78,68.81,65.75
		c-7.66,8.15-25.28,14.81-41.05,15.27c64.16,57.69,208.16,112.92,357.56,140.69c67.49,27.78,140.44,29.06,217.12,12.23
		c162.4-10.73,291.85-46.17,389.2-101.46c-15.04-0.54-37.16-11.02-42.11-17.81c36.88-11.84,63.13-33.98,81.04-64.22
		c-29.29-2.86-54.65-13.29-76.45-30.58c28.58-14.67,47.36-34.59,56.57-59.63c-90.26-5.01-138.58-95.78-139.19-222.11
		C861.3,406.55,743.94,291.07,544.59,282.66z"/>
	<path class="st0" d="M569.82,727.01c9.61-164.79,93.65-253.46,233.66-229.09C825.86,761.85,692.04,777.83,569.82,727.01z"/>
	<path class="st0" d="M437.1,727.2c39.24-163.72-11.24-238.22-160.17-241.8C198.48,713.73,302.85,762.87,437.1,727.2z"/>
	<path class="st3" d="M523.6,769.22h5.97c2.91,0,5.27,2.36,5.27,5.27v5.97c0,2.91-2.36,5.27-5.27,5.27h-5.97
		c-2.91,0-5.27-2.36-5.27-5.27v-5.97C518.33,771.58,520.69,769.22,523.6,769.22z"/>
	<path class="st4" d="M208.2,531.22c0.03-0.11,0.05-0.16,0.05-0.16C208.24,531.12,208.23,531.16,208.2,531.22z"/>
	<path class="st5" d="M425.1,763.77c39.79-13.56,80.5-11.55,122.08,5.24c5,2.02,5.93,8.7,1.68,12.01
		c-18.97,14.78-35.02,31.56-48.13,50.37c-7.92,11.37-24.69,11.35-32.59-0.03c-14.44-20.8-29.77-39.37-45.79-56.14
		C418.82,771.53,420.27,765.41,425.1,763.77z"/>
	
		<ellipse transform="matrix(0.1616 -0.9869 0.9869 0.1616 -328.1834 1157.5461)" class="st6" cx="517.15" cy="771.92" rx="6.03" ry="13.72"/>
	<path class="st0" d="M1034.28,761.62c-42.95,39.06-101.73,65.27-185.93,81.59c46.91-0.83,92.78-3.43,129.36-21.96
		C1006.24,807.89,1025.06,787.98,1034.28,761.62z"/>
	<path class="st0" d="M1055.28,851.46c-39.53,28.65-85.5,48.55-137.29,60.54c19.51,4.32,38.29,5.67,56.26,3.68
		C1017.79,900.52,1040.02,877.31,1055.28,851.46z"/>
	<path class="st0" d="M52.84,717.29c42.95,39.06,101.19,69.07,185.4,85.39c-46.91-0.83-95.08-4.54-131.65-23.06
		C78.05,766.26,62.07,743.65,52.84,717.29z"/>
	<path class="st0" d="M24.96,800.88c34.79,34.78,76.23,59.16,137.29,60.54c-19.51,4.32-45.42,7.72-68.73,5.32
		C47.64,854.58,29.87,821.26,24.96,800.88z"/>
	<ellipse class="st5" cx="657.41" cy="654.18" rx="48.34" ry="68.86"/>
	<ellipse class="st5" cx="371.88" cy="651.97" rx="48.34" ry="68.86"/>
	<ellipse class="st6" cx="664" cy="621.28" rx="16.38" ry="20.52"/>
	<ellipse class="st6" cx="378.45" cy="618.25" rx="16.38" ry="20.52"/>
</g>
</svg>
