<?xml version="1.0" encoding="UTF-8"?>
<svg xmlns="http://www.w3.org/2000/svg" version="1.1" viewBox="0 0 1080 1080">
  <defs>
    <style>
      .cls-1 {
        fill: #f2e8df;
      }

      .cls-1, .cls-2, .cls-3, .cls-4, .cls-5, .cls-6, .cls-7, .cls-8 {
        stroke-width: 0px;
      }

      .cls-2 {
        fill: #f2691d;
      }

      .cls-3 {
        fill: #ffe5b6;
      }

      .cls-4 {
        fill: #ffd797;
      }

      .cls-5 {
        fill: #934624;
      }

      .cls-6 {
        fill: #26110d;
      }

      .cls-7 {
        fill: #ffbc80;
      }

      .cls-8 {
        fill: #fffefd;
      }
    </style>
  </defs>
  <g id="Capa_1_copia" data-name="Capa 1 copia">
    <g>
      <path class="cls-6" d="M481.75,354.64c-77.52,52.67-153.98,73.61-154.87,202.9-38.52-54.91-69.72-125.22-85.31-202.3-13.97-69.11-14.79-136.44-4.61-196.89,24.51-2.56,59.33,9.61,81.01,22.23,55.27,32.16,122.44,125.03,163.77,174.06Z"/>
      <path class="cls-6" d="M333.76,566.4l9.78-66.04c-95.94-58.24-54.56-270.78-107.71-337.24-16.48,147.61,11.79,290.18,97.93,403.28Z"/>
      <path class="cls-6" d="M630.26,361.9c41.63,21.06,161.23,66.35,162.12,195.64,38.52-54.91,69.72-125.22,85.31-202.3,13.97-69.11,14.79-136.44,4.61-196.89-24.51-2.56-59.33,9.61-81.01,22.23-55.27,32.16-129.7,132.28-171.03,181.32Z"/>
      <path class="cls-6" d="M785.51,566.4l-9.78-66.04c95.94-58.24,54.56-270.78,107.71-337.24,16.48,147.61-11.79,290.18-97.93,403.28Z"/>
      <path class="cls-6" d="M543.46,345.7c-142,0-230.83,95.56-255.13,198.56-21.74,87.44-60.93,129.7-116.6,129.3,2.76,13.65,20.57,35.27,34.63,43.87-10.64,12.64-29.2,19.11-55.41,19.63,5.73,21.39,27.78,45.13,51.95,49.64-5.78,6.15-19.08,11.18-30.99,11.53,48.44,43.56,157.17,85.26,269.96,106.22,50.96,20.98,106.04,21.94,163.93,9.24,122.61-8.1,220.35-34.86,293.85-76.6-11.35-.41-28.06-8.32-31.79-13.45,27.84-8.94,47.67-25.65,61.19-48.49-22.11-2.16-41.26-10.04-57.72-23.09,21.58-11.07,35.76-26.12,42.71-45.02-68.15-3.78-104.63-72.32-105.09-167.7-26.36-100.1-114.97-187.29-265.48-193.64Z"/>
      <path class="cls-6" d="M562.51,681.2c7.26-124.42,70.7-191.36,176.41-172.96,16.9,199.26-84.14,211.33-176.41,172.96Z"/>
      <path class="cls-6" d="M462.31,681.34c29.63-123.61-8.49-179.86-120.93-182.56-59.23,172.39,19.57,209.49,120.93,182.56Z"/>
      <rect class="cls-6" x="523.64" y="713.06" width="12.47" height="12.47" rx="5.27" ry="5.27"/>
      <path class="cls-6" d="M289.48,533.37c.02-.08.04-.12.04-.12,0,.04-.01.07-.04.12Z"/>
      <path class="cls-6" d="M453.25,708.95c30.04-10.24,60.78-8.72,92.17,3.96,3.77,1.52,4.48,6.57,1.27,9.07-14.32,11.16-26.44,23.83-36.34,38.03-5.98,8.58-18.64,8.57-24.61-.02-10.9-15.71-22.47-29.72-34.58-42.39-2.66-2.79-1.57-7.41,2.08-8.65Z"/>
      <ellipse class="cls-6" cx="522.74" cy="715.1" rx="4.56" ry="10.36" transform="translate(-267.42 1115.44) rotate(-80.7)"/>
      <path class="cls-6" d="M913.19,707.33c-32.43,29.49-76.81,49.28-140.38,61.6,35.42-.62,70.05-2.59,97.67-16.58,21.54-10.09,35.75-25.12,42.71-45.02Z"/>
      <path class="cls-6" d="M929.05,775.16c-29.84,21.63-64.55,36.65-103.66,45.71,14.73,3.26,28.91,4.28,42.47,2.77,32.88-11.44,49.66-28.97,61.19-48.49Z"/>
      <path class="cls-6" d="M172.19,673.86c32.43,29.49,76.4,52.15,139.98,64.47-35.42-.62-71.78-3.43-99.4-17.41-21.54-10.09-33.61-27.16-40.57-47.06Z"/>
      <path class="cls-6" d="M151.14,736.97c26.27,26.26,57.56,44.66,103.66,45.71-14.73,3.26-34.29,5.83-51.89,4.02-34.64-9.19-48.06-34.34-51.77-49.73Z"/>
      <ellipse class="cls-6" cx="628.65" cy="626.21" rx="36.49" ry="51.99"/>
      <ellipse class="cls-6" cx="413.07" cy="624.54" rx="36.49" ry="51.99"/>
      <ellipse class="cls-6" cx="633.63" cy="601.36" rx="12.37" ry="15.5"/>
      <ellipse class="cls-6" cx="418.02" cy="599.08" rx="12.37" ry="15.5"/>
    </g>
  </g>
  <g id="Capa_1" data-name="Capa 1">
    <g>
      <path class="cls-4" d="M487.04,371.49c-70.48,47.88-139.98,66.92-140.79,184.46-35.01-49.91-63.38-113.84-77.55-183.91-12.7-62.83-13.45-124.03-4.19-178.99,22.28-2.33,53.93,8.74,73.65,20.21,50.25,29.24,111.31,113.66,148.88,158.24Z"/>
      <path class="cls-7" d="M352.51,564l8.89-60.04c-87.22-52.94-49.6-246.16-97.92-306.58-14.98,134.19,10.72,263.8,89.03,366.62Z"/>
      <path class="cls-4" d="M622.05,378.09c37.85,19.15,146.58,60.32,147.38,177.86,35.01-49.91,63.38-113.84,77.55-183.91,12.7-62.83,13.45-124.03,4.19-178.99-22.28-2.33-53.93,8.74-73.65,20.21-50.25,29.24-117.91,120.26-155.48,164.84Z"/>
      <path class="cls-7" d="M763.19,564l-8.89-60.04c87.22-52.94,49.6-246.16,97.92-306.58,14.98,134.19-10.72,263.8-89.03,366.62Z"/>
      <path class="cls-3" d="M543.15,363.37c-129.09,0-209.85,86.87-231.94,180.51-19.77,79.49-55.39,117.91-106,117.54,2.51,12.41,18.7,32.06,31.48,39.88-9.67,11.49-26.55,17.37-50.38,17.84,5.21,19.44,25.25,41.03,47.23,45.13-5.26,5.59-17.35,10.16-28.18,10.48,44.04,39.6,142.88,77.51,245.42,96.57,46.33,19.07,96.4,19.95,149.03,8.4,111.47-7.37,200.32-31.69,267.13-69.64-10.32-.37-25.51-7.57-28.9-12.22,25.31-8.13,43.33-23.32,55.62-44.08-20.1-1.96-37.51-9.12-52.47-20.99,19.62-10.07,32.51-23.74,38.83-40.93-61.96-3.44-95.12-65.74-95.54-152.45-23.96-91-104.52-170.26-241.35-176.04Z"/>
      <path class="cls-4" d="M560.46,668.36c6.6-113.11,64.28-173.97,160.38-157.24,15.36,181.15-76.49,192.12-160.38,157.24Z"/>
      <path class="cls-4" d="M469.37,668.49c26.93-112.37-7.71-163.51-109.94-165.97-53.85,156.72,17.79,190.44,109.94,165.97Z"/>
      <rect class="cls-1" x="525.12" y="697.33" width="11.34" height="11.34" rx="5.27" ry="5.27"/>
      <path class="cls-2" d="M312.26,533.98c.02-.08.03-.11.03-.11,0,.03-.01.06-.03.11Z"/>
      <path class="cls-5" d="M461.14,693.59c27.31-9.31,55.25-7.93,83.79,3.6,3.43,1.39,4.07,5.97,1.15,8.24-13.02,10.14-24.04,21.67-33.04,34.57-5.44,7.8-16.95,7.79-22.37-.02-9.91-14.28-20.43-27.02-31.43-38.53-2.42-2.53-1.43-6.73,1.89-7.86Z"/>
      <ellipse class="cls-8" cx="524.31" cy="699.18" rx="4.14" ry="9.42" transform="translate(-250.4 1103.64) rotate(-80.7)"/>
      <path class="cls-4" d="M879.26,692.11c-29.48,26.81-69.82,44.8-127.62,56,32.2-.57,63.68-2.36,88.79-15.07,19.58-9.17,32.5-22.84,38.83-40.93Z"/>
      <path class="cls-4" d="M893.68,753.78c-27.13,19.66-58.68,33.32-94.24,41.56,13.39,2.96,26.28,3.89,38.61,2.52,29.89-10.4,45.15-26.34,55.62-44.08Z"/>
      <path class="cls-4" d="M205.63,661.69c29.48,26.81,69.45,47.41,127.25,58.61-32.2-.57-65.26-3.12-90.36-15.83-19.58-9.17-30.55-24.69-36.89-42.78Z"/>
      <path class="cls-4" d="M186.49,719.06c23.88,23.87,52.32,40.6,94.24,41.56-13.39,2.96-31.17,5.3-47.17,3.65-31.49-8.36-43.69-31.22-47.06-45.21Z"/>
      <ellipse class="cls-5" cx="620.59" cy="618.37" rx="33.18" ry="47.26"/>
      <ellipse class="cls-5" cx="424.61" cy="616.86" rx="33.18" ry="47.26"/>
      <ellipse class="cls-8" cx="625.11" cy="595.79" rx="11.24" ry="14.09"/>
      <ellipse class="cls-8" cx="429.11" cy="593.71" rx="11.24" ry="14.09"/>
    </g>
  </g>
</svg>