<svg fill="none" height="32" viewBox="0 0 32 32" width="32" xmlns="http://www.w3.org/2000/svg"><g fill="#212121"><path d="m10.08 17.2999c0-.6861.5639-1.25 1.25-1.25.6862 0 1.25.5639 1.25 1.25v1.5c0 .6818-.5495 1.25-1.25 1.25-.6861 0-1.25-.5638-1.25-1.25z"/><path d="m18.5 17.2999c0-.6861.5639-1.25 1.25-1.25s1.25.5639 1.25 1.25v1.5c0 .6818-.5495 1.25-1.25 1.25-.6861 0-1.25-.5638-1.25-1.25z"/><path d="m19.6716 1.51101c-.6544.53814-1.2379 1.16926-1.7444 1.85812-.628.83785-1.1407 1.7594-1.522 2.74012l-.3993.89075.0941.00003h-1.061c-.64-2.15469-1.8967-4.07496-3.615-5.524-.3486-.27105-.7704-.42947-1.2093-.4558-.0985-.01355-.1973-.02023-.29531-.02023-.45915 0-.93387.14647-1.32469.45913l-.00395.00317c-.76987.62231-1.35129 1.36714-1.82761 2.15447-.41742.58261-.78149 1.20413-1.0866 1.85729-.72334 1.54845-1.09768 3.2369-1.09655 4.94594v7.58h-1.95c-.24949-.0006-.4957.0569-.7191.168-.22339.1111-.41783.2727-.5679.472-.15423.2006-.2595.4344-.30742.6829-.047915.2484-.037157.5046.03142.7481.8966 3.1416 2.79024 5.9064 5.39541 7.8778 2.60518 1.9713 5.7806 3.0422 9.0476 3.0512h.14c3.268-.0083 6.4445-1.0795 9.0501-3.0519 2.6057-1.9725 4.4989-4.739 5.3939-7.8821.0666-.2423.0764-.4968.0286-.7435-.0478-.2468-.1519-.4792-.3042-.6791s-.3487-.362-.5739-.4736-.4732-.1697-.7245-.1698h-1.95v-7.58c.002-1.70608-.3712-3.39177-1.0932-4.93758-.5246-1.12312-1.224-2.15243-2.0695-3.05076-.3069-.34582-.6456-.67213-1.0234-.97315-.3906-.31223-.865-.45851-1.3239-.45851-.4408 0-.896.135-1.2774.42245-.0167.01195-.0332.02414-.0496.03658zm-13.08761 8.90999c-.00357-1.1703.20628-2.32942.6172-3.421h.7135c-.54781 1.27422-.84468 2.6845-.84468 4.1416v2.6084c.29631-.5336.63106-1.0364 1-1.504 1.2497-1.5837 2.89159-2.76226 4.75999-3.3561-.1422-.6535-.3458-1.28688-.6058-1.8899h.7135c.1516.40233.2771.8158.3753 1.23803l.187.762h4.145l.187-.763c.0979-.42188.2232-.83501.3744-1.23703h.6991c-.2596.60374-.4628 1.23851-.6055 1.89491 1.8741.59395 3.5222 1.77219 4.77 3.35019.3701.4681.7049.9713 1 1.5049v-2.5782c0-1.4689-.2985-2.89062-.8522-4.1718h.7354c.4113 1.09111.621 2.24999.6168 3.42v7.77c.0005.4799.1914.94.5307 1.2793s.7994.5302 1.2793.5307h1.644c-.0538.1647-.1108.3281-.1709.49h-5.5831c-1.5976 0-3.1642.4328-4.5298 1.2439.2013-.5911-.2202-1.2839-.9248-1.2839h-2.54c-.6908 0-1.1094.649-.9534 1.2266-1.3424-.7743-2.8722-1.1866-4.43201-1.1866h-5.58402c-.06015-.1619-.11716-.3253-.17098-.49h1.635c.4804.0006.94135-.1897 1.28151-.5289s.53169-.7997.53249-1.2801zm3.44331-5.03168c.31.35009.5856.72674.8242 1.12481l.1721.28713c.2422.46546.4458.95666.6072 1.46717-1.333.5647-2.5339 1.40336-3.55163 2.45127.08709-2.00293.79131-3.87372 1.94813-5.33038zm17.4066 16.10068c-.9313 1.9858-2.3521 3.7132-4.1398 5.0134-2.2218 1.616-4.8968 2.4897-7.6441 2.4966h-.14c-2.7473-.0073-5.4223-.8812-7.64417-2.4971-1.7877-1.3001-3.20875-3.0273-4.14041-5.0129h5.16457c1.64551 0 3.25341.5172 4.58831 1.4761l.0015.0011 1.5856 1.13c-.0707 1.057-.952 1.9028-2.0354 1.9028-.28 0-.5.22-.5.5s.22.5.5.5c1.06 0 2-.55 2.55-1.37.54.82 1.48 1.37 2.54 1.37.27 0 .49-.22.49-.5s-.22-.5-.5-.5c-1.0697 0-1.957-.8301-2.0345-1.8892l1.6047-1.1436.0015-.0011c1.3349-.9589 2.9428-1.4761 4.5883-1.4761zm-7.9352-13.21782c.3417-1.08558.8714-2.07974 1.5588-2.92741 1.1868 1.45225 1.9085 3.34327 2.0021 5.37503-1.0191-1.04582-2.2242-1.88353-3.5609-2.44762z"/></g></svg>