<svg fill="none" height="32" viewBox="0 0 32 32" width="32" xmlns="http://www.w3.org/2000/svg"><path d="m17.5578 5.98078c-.2972.65971-.5315 1.34143-.6978 2.01922h-2.58c-.1695-.69076-.4096-1.38561-.7149-2.05708l-3.5343-.91948-3.46588.91238c-.63854 1.40498-.98492 2.95312-.98492 4.48418v7.77c0 .45-.36.81-.81.81h-2.14c-.41 0-.71.4-.6.8.11599.4109.25025.8141.40184 1.2088l13.15316 4.8465 13.1442-4.8477c.1512-.3943.2851-.7971.4008-1.2076.11-.4-.19-.8-.61-.8h-2.14c-.45 0-.81-.36-.81-.81v-7.77c0-1.50709-.3378-3.03559-.9623-4.42772l-3.5668-.96884z" fill="#ff822d"/><path d="m10.19 3.98006c1.31 1.17 2.23 2.71 2.64 4.4-2.42.69-4.45999 2.26004-5.75999 4.36004v-2.34c0-2.47004 1.06-4.79004 2.87-6.42004.06999-.06.17999-.06.24999 0z" fill="#ff6723"/><path d="m24.07 10.4199v2.31c-1.29-2.09-3.34-3.65995-5.77-4.34995.41-1.69 1.32-3.22 2.63-4.39.07-.06.18-.06.25 0 1.83 1.62 2.89 3.95 2.89 6.42995z" fill="#ff6723"/><path d="m28.73 20.99h-6.46c-1.75 0-3.46.55-4.88 1.57l-1.81 1.29-1.81-1.29c-1.42-1.02-3.13-1.57-4.88002-1.57h-6.47c2.01 5.27 7.11 9.01 13.08002 9.01h.07.07c5.98-.01 11.08-3.75 13.09-9.01z" fill="#ffdea7"/><g fill="#212121"><path d="m13.58 5.95c-.65-1.43-1.6-2.75-2.79-3.71-.2-.16-.45-.24-.7-.24s-.5.08-.7.24c-1.21.97-2.18 2.26-2.83 3.71z"/><path d="m21.76 2.24c-.2-.16-.45-.24-.7-.24s-.5.08-.7.24c-1.2.97-2.16 2.31-2.81 3.76h7.07c-.66-1.47-1.63-2.78-2.86-3.76z"/><path d="m11 18c0-.5523.4477-1 1-1s1 .4477 1 1v1c0 .5523-.4477 1-1 1s-1-.4477-1-1z"/><path d="m18 18c0-.5523.4477-1 1-1s1 .4477 1 1v1c0 .5523-.4477 1-1 1s-1-.4477-1-1z"/><path d="m15.58 25.63c.54.82 1.48 1.37 2.54 1.37.27 0 .49-.22.49-.5s-.22-.5-.5-.5c-1.12 0-2.04-.91-2.04-2.04 0-.0818-.0188-.1585-.0523-.226.0614-.0365.1194-.0811.1723-.134l1.13-1.13c.55-.55.16-1.48-.61-1.48h-2.26c-.78 0-1.17.93-.62 1.48l1.13 1.13c.0506.0507.106.0938.1646.1294-.035.0686-.0546.1469-.0546.2306 0 1.12-.91 2.04-2.04 2.04-.28 0-.5.22-.5.5s.22.5.5.5c1.06 0 2-.55 2.55-1.37z"/></g></svg>